<svg width="10" height="18" viewBox="0 0 10 18" fill="none" xmlns="http://www.w3.org/2000/svg">
<path d="M0 8.64258C0 8.97461 0.126953 9.25781 0.390625 9.51172L8.00781 16.9629C8.21289 17.1777 8.48633 17.2852 8.79883 17.2852C9.43359 17.2852 9.93164 16.7969 9.93164 16.1523C9.93164 15.8398 9.80469 15.5566 9.58984 15.3418L2.72461 8.64258L9.58984 1.94336C9.80469 1.71875 9.93164 1.43555 9.93164 1.12305C9.93164 0.488281 9.43359 0 8.79883 0C8.48633 0 8.21289 0.107422 8.00781 0.322266L0.390625 7.77344C0.126953 8.02734 0.00976562 8.31055 0 8.64258Z" fill="#0A7AFF"/>
</svg>
