<svg width="32" height="32" viewBox="0 0 32 32" fill="none" xmlns="http://www.w3.org/2000/svg">
<rect width="32" height="32" rx="6.25" fill="black"/>
<path d="M15.9694 7.125C16.9668 7.125 17.7148 7.24812 18.2136 7.55637C18.7125 7.86462 18.962 8.35758 18.962 9.09712C18.962 9.5285 18.8996 9.95988 18.8372 10.4529C20.4585 13.596 21.5186 16.5543 22.1422 19.3891C23.5765 14.9519 24.3247 11.439 24.3247 8.789C24.3247 8.41925 24.2623 8.0495 24.1999 7.67975C25.0106 7.31 25.8213 7.125 26.6943 7.125C27.6917 7.125 28.4397 7.24812 28.9386 7.55637C29.4374 7.86462 29.687 8.35758 29.687 9.09712C29.687 10.5155 29.126 12.7332 28.1286 15.8147C27.0685 18.8963 26.0084 21.1764 24.9484 22.7171C24.0754 24.0729 22.7058 24.7509 20.8396 24.7509C20.084 24.7509 19.3284 24.6278 18.5728 24.4428C17.8262 22.1628 17.0796 19.7603 16.904 17.2322C16.031 19.7603 15.1581 21.4239 14.2227 22.7808C13.3498 24.1366 11.9801 24.8146 10.1139 24.8146C9.35833 24.8146 8.60277 24.6915 7.8472 24.5065C7.28619 21.8615 6.47544 18.771 5.41438 15.297C4.35332 11.8231 3.54257 9.83225 2.98214 8.91237C3.72976 7.92525 4.55731 7.3715 5.46479 7.3715C7.03843 7.3715 8.03787 8.11105 8.46312 9.5285C9.7696 12.7953 10.6749 16.1237 11.4167 19.4509C12.8511 15.0137 13.5992 11.5008 13.5992 8.85188C13.5992 8.48213 13.5368 8.11238 13.4744 7.74263C14.2227 7.309 15.0335 7.125 15.9694 7.125Z" fill="white"/>
</svg>